# Blender v2.83.0 OBJ File: 'walled floor tile.blend'
# www.blender.org
mtllib walled floor tile.mtl
o Cube
v 0.500000 0.000000 -0.500000
v 0.500000 -0.300000 -0.500000
v 0.500000 0.000000 0.500000
v 0.500000 -0.300000 0.500000
v -0.500000 0.000000 -0.500000
v -0.500000 -0.300000 -0.500000
v -0.500000 0.000000 0.500000
v -0.500000 -0.300000 0.500000
v -0.500000 -0.300000 0.800000
v -0.500000 0.000000 0.800000
v 0.500000 0.000000 0.800000
v 0.500000 -0.300000 0.800000
v 0.500000 1.000000 0.500000
v -0.500000 1.000000 0.500000
v 0.500000 1.000000 0.800000
v -0.500000 1.000000 0.800000
vt 0.625000 0.500000
vt 0.875000 0.500000
vt 0.875000 0.750000
vt 0.625000 0.750000
vt 0.625000 0.000000
vt 0.375000 0.000000
vt 0.375000 0.000000
vt 0.625000 0.000000
vt 0.625000 0.250000
vt 0.375000 0.250000
vt 0.125000 0.500000
vt 0.375000 0.500000
vt 0.375000 0.750000
vt 0.125000 0.750000
vt 0.375000 0.750000
vt 0.625000 0.750000
vt 0.625000 1.000000
vt 0.375000 1.000000
vt 0.125000 0.750000
vt 0.625000 0.750000
vt 0.625000 1.000000
vt 0.625000 0.750000
vt 0.875000 0.750000
vt 0.875000 0.750000
vt 0.625000 0.000000
vt 0.625000 0.000000
vn 0.0000 1.0000 0.0000
vn -1.0000 0.0000 0.0000
vn 0.0000 -1.0000 0.0000
vn 1.0000 0.0000 0.0000
vn 0.0000 0.0000 -1.0000
vn 0.0000 0.0000 1.0000
usemtl Material
s off
f 1/1/1 5/2/1 7/3/1 3/4/1
f 7/5/2 8/6/2 9/7/2 10/8/2
f 8/6/2 7/5/2 5/9/2 6/10/2
f 6/11/3 2/12/3 4/13/3 8/14/3
f 2/12/4 1/1/4 3/4/4 4/13/4
f 6/10/5 5/9/5 1/1/5 2/12/5
f 12/15/6 11/16/6 10/17/6 9/18/6
f 8/14/3 4/13/3 12/15/3 9/19/3
f 10/17/6 11/16/6 15/20/6 16/21/6
f 4/13/4 3/4/4 11/16/4 12/15/4
f 13/22/1 14/23/1 16/24/1 15/20/1
f 11/16/4 3/4/4 13/22/4 15/20/4
f 3/4/5 7/3/5 14/23/5 13/22/5
f 7/5/2 10/8/2 16/25/2 14/26/2
